<?xml version="1.0" encoding="UTF-8"?>
<svg id="Layer_2" data-name="Layer 2" xmlns="http://www.w3.org/2000/svg" xmlns:xlink="http://www.w3.org/1999/xlink" viewBox="0 0 680.91 104.5">
  <defs>
    <style>
      .cls-1 {
        fill: url(#linear-gradient);
      }

      .cls-2 {
        fill: #1e2b45;
      }
    </style>
    <linearGradient id="linear-gradient" x1="51.01" y1="0" x2="51.01" y2="104.5" gradientUnits="userSpaceOnUse">
      <stop offset="0" stop-color="#e8d9ca"/>
      <stop offset="1" stop-color="#aa8e72"/>
    </linearGradient>
  </defs>
  <g id="Layer_1-2" data-name="Layer 1">
    <g>
      <path class="cls-1" d="M23.81,19.11s-.02-.02-.03-.03c-1.57-1.57-4.09-1.67-5.85-.3l-9.47,7.37C3.12,30.32,0,36.71,0,43.48v43.53c-.05,9.73,7.94,17.3,17.38,17.49,1.09.02,2.16-.34,3-1.04,25.38-21.32,27.19-60.9,3.43-84.35ZM98.76,77.69c-21.16-6.09-46,1.77-60.13,19.48-2.34,2.93-.17,7.28,3.58,7.28h37.85c12.13,0,21.95-9.83,21.95-21.95v-.45c0-2.01-1.32-3.8-3.25-4.35ZM93.56,30.08L59.66,3.67c-6.19-4.87-14.75-4.79-21.02-.35-1.03.73-1.71,1.89-1.84,3.15-1.71,16.6,3.78,33.79,16.5,46.51,12.22,12.22,28.59,17.78,44.58,16.67,2.34-.16,4.14-2.16,4.14-4.51v-17.74c0-6.77-3.12-13.16-8.46-17.32Z"/>
      <g>
        <path class="cls-2" d="M138.44,56.76c0-13.94,8.38-24.85,23.26-24.85,10.69,0,18.06,5.49,21.45,14.95l-7.08,5.2c-1.52-7.29-6-12.42-14.3-12.42-9.97,0-14.66,7.08-14.66,17.12s4.7,17.12,14.66,17.12c8.31,0,12.79-5.2,14.3-12.42l7.08,5.2c-3.4,9.39-10.76,14.95-21.45,14.95-14.88,0-23.26-10.91-23.26-24.85Z"/>
        <path class="cls-2" d="M188.29,81.03v-48.4h8.09v48.4h-8.09Z"/>
        <path class="cls-2" d="M201.37,63.47c0-11.05,6.86-18.35,16.76-18.35,10.55,0,16.4,7.01,16.4,16.76,0,1.3-.14,2.82-.29,3.54h-25.14c.43,6.28,4.12,9.68,9.68,9.68,6.14,0,8.89-3.18,10.18-6.14l4.99,5.2c-2.67,4.04-7.44,7.59-15.24,7.59-10.47,0-17.34-7.3-17.34-18.28ZM209.17,60.22h18.06c-.58-5.56-3.76-8.6-9.1-8.6-4.98,0-8.31,2.89-8.96,8.6Z"/>
        <path class="cls-2" d="M238.14,73.44c0-4.99,3.47-8.02,9.17-10.26l11.77-4.99c-.29-3.54-1.88-5.92-6.72-5.92s-8.38,2.75-10.4,6.43l-4.84-5.78c2.75-3.76,8.23-7.8,16.04-7.8,8.74,0,13.65,4.98,13.65,13.65v13.22c0,1.59.58,2.09,1.88,2.09h2.24v6.93h-4.98c-3.76,0-6.72-1.73-6.72-6.79v-2.6c-1.08,4.62-4.48,10.11-11.85,10.11-5.78,0-9.25-3.25-9.25-8.31ZM250.28,75.47c5.34,0,8.96-3.18,8.96-7.95v-3.76l-9.03,4.04c-3.03,1.37-4.26,2.6-4.26,4.41,0,2.02,1.37,3.25,4.33,3.25Z"/>
        <path class="cls-2" d="M275.35,81.03v-35.18h8.09v9.97c1.3-5.63,4.84-10.69,11.12-10.69,4.41,0,7.66,2.89,7.66,8.09,0,3.4-.94,5.92-1.59,7.01h-8.31c1.15-1.15,2.24-3.47,2.24-5.49s-.94-3.54-3.32-3.54c-4.04,0-7.8,4.62-7.8,10.47v19.36h-8.09Z"/>
        <path class="cls-2" d="M302.22,73.15l4.77-5.06c1.95,3.54,6.28,7.15,12.57,7.15,3.47,0,5.71-1.23,5.71-3.76s-2.67-3.47-6.57-4.41l-4.7-1.16c-5.56-1.3-10.69-3.76-10.69-10.18s5.27-10.55,13.36-10.55c7.51,0,12.79,3.61,14.95,7.58l-4.77,5.06c-2.46-3.9-6.21-6.21-10.76-6.21-3.11,0-5.2,1.3-5.2,3.68,0,2.53,1.88,3.47,6.65,4.7l4.26,1.08c7.87,2.02,10.76,5.2,10.76,10.26,0,6.93-5.85,10.4-13.29,10.4s-14.37-3.04-17.05-8.6Z"/>
        <path class="cls-2" d="M338.7,71.42v-19.29h-5.49v-6.28h5.49v-4.26l8.09-5.13v9.39h10.76v6.28h-10.76v17.34c0,3.83,1.81,4.77,4.19,4.77,2.75,0,4.77-2.24,5.78-4.26l2.53,7.22c-1.52,2.24-4.98,4.62-10.11,4.62-6.65,0-10.47-4.19-10.47-10.4Z"/>
        <path class="cls-2" d="M358.43,63.47c0-10.98,6.94-18.35,17.05-18.35s17.19,7.37,17.19,18.35-6.93,18.28-17.19,18.28-17.05-7.37-17.05-18.28ZM384.43,63.47c0-8.16-3.61-11.63-8.88-11.63s-8.81,3.47-8.81,11.63,3.61,11.56,8.81,11.56,8.88-3.47,8.88-11.56Z"/>
        <path class="cls-2" d="M397.8,81.03v-35.18h8.09v9.61c1.3-5.56,4.91-10.33,11.92-10.33s11.05,4.12,11.05,11.41v24.49h-8.16v-22.03c0-4.33-1.44-7.3-6.86-7.3-5.92,0-7.94,3.83-7.94,9.61v19.72h-8.09Z"/>
        <path class="cls-2" d="M433.49,63.47c0-11.05,6.86-18.35,16.76-18.35,10.55,0,16.4,7.01,16.4,16.76,0,1.3-.14,2.82-.29,3.54h-25.14c.43,6.28,4.12,9.68,9.68,9.68,6.14,0,8.89-3.18,10.18-6.14l4.99,5.2c-2.67,4.04-7.44,7.59-15.24,7.59-10.47,0-17.34-7.3-17.34-18.28ZM441.29,60.22h18.06c-.58-5.56-3.76-8.6-9.1-8.6-4.98,0-8.31,2.89-8.96,8.6Z"/>
        <path class="cls-2" d="M481.74,80.7v-48.4h4.77v21.6h27.02v-21.6h4.77v48.4h-4.77v-22.54h-27.02v22.54h-4.77Z"/>
        <path class="cls-2" d="M524.79,63.37c0-10.98,6.65-18.06,16.18-18.06s16.25,7.08,16.25,18.06-6.72,18.06-16.25,18.06-16.18-7.08-16.18-18.06ZM552.46,63.37c0-9.25-4.62-14.16-11.49-14.16s-11.41,4.91-11.41,14.16,4.62,14.01,11.41,14.01,11.49-4.84,11.49-14.01Z"/>
        <path class="cls-2" d="M563.73,80.7v-34.67h4.77v9.68c1.23-5.71,5.06-10.4,11.49-10.4s9.97,3.54,10.33,10.55c1.16-5.71,5.13-10.55,11.63-10.55s10.4,3.97,10.4,11.92v23.48h-4.77v-22.39c0-6.07-2.67-9.03-8.02-9.03-6.21,0-9.17,5.35-9.17,11.34v20.08h-4.7v-22.39c0-6.07-2.67-9.03-8.09-9.03-6.14,0-9.1,5.35-9.1,11.34v20.08h-4.77Z"/>
        <path class="cls-2" d="M618.35,63.37c0-11.27,6.43-18.06,15.82-18.06s15.39,6.36,15.39,16.83c0,.87-.14,1.73-.22,2.31h-26.44c.29,8.67,4.98,13,11.85,13s10.04-3.83,11.56-7.22l2.89,3.4c-2.46,4.26-7.08,7.8-14.45,7.8-9.68,0-16.4-6.57-16.4-18.06ZM622.97,60.98h22.25c-.43-7.8-4.7-11.77-11.05-11.77s-10.55,3.97-11.2,11.77Z"/>
        <path class="cls-2" d="M653.03,71.46l3.54-2.67c1.08,4.7,5.42,8.6,12.42,8.6,4.62,0,7.66-1.88,7.66-5.49s-3.11-4.91-7.8-5.99l-4.7-1.08c-4.98-1.23-10.11-3.54-10.11-9.75s4.77-9.75,11.92-9.75,12.21,3.68,13.94,8.6l-3.61,2.67c-1.59-4.7-5.2-7.3-10.62-7.3-4.19,0-7.15,1.95-7.15,5.56s2.6,4.91,7.66,6.14l4.62,1.16c7.22,1.81,10.11,4.77,10.11,9.68,0,6.65-5.63,9.61-12.06,9.61-7.08,0-13.72-3.18-15.82-9.97Z"/>
      </g>
    </g>
  </g>
</svg>